HIERARCHY
ROOT Hips
{
	OFFSET 0.0000 0.0000 0.0000
	CHANNELS 6 Xposition Yposition Zposition Zrotation Xrotation Yrotation
	JOINT Spine1
	{
		OFFSET -0.0137 5.0038 -0.0537
		CHANNELS 3 Zrotation Xrotation Yrotation
		JOINT Spine2
		{
			OFFSET -0.0000 7.1253 -0.0298
			CHANNELS 3 Zrotation Xrotation Yrotation
			JOINT Chest
			{
				OFFSET -0.0000 7.5501 -0.8160
				CHANNELS 3 Zrotation Xrotation Yrotation
				JOINT Neck1
				{
					OFFSET -0.1817 26.3113 -0.5533
					CHANNELS 3 Zrotation Xrotation Yrotation
					JOINT Neck2
					{
						OFFSET -0.0000 7.7094 2.3026
						CHANNELS 3 Zrotation Xrotation Yrotation
						JOINT Head
						{
							OFFSET -0.0000 6.1289 1.9537
							CHANNELS 3 Zrotation Xrotation Yrotation
							JOINT Jaw
							{
								OFFSET 0.0026 0.4756 3.0949
								CHANNELS 3 Zrotation Xrotation Yrotation
								End Site
								{
									OFFSET 0.0 1.0 0.0
								}
							}
							JOINT LeftEye
							{
								OFFSET 3.2064 5.3802 7.5869
								CHANNELS 3 Zrotation Xrotation Yrotation
								End Site
								{
									OFFSET 0.0 1.0 0.0
								}
							}
							JOINT RightEye
							{
								OFFSET -3.2224 5.3619 7.5582
								CHANNELS 3 Zrotation Xrotation Yrotation
								End Site
								{
									OFFSET 0.0 1.0 0.0
								}
							}
						}
					}
				}
				JOINT LeftShoulder
				{
					OFFSET 1.6217 23.2372 5.1134
					CHANNELS 3 Zrotation Xrotation Yrotation
					JOINT LeftArm
					{
						OFFSET 14.9198 0.0000 -5.5023
						CHANNELS 3 Zrotation Xrotation Yrotation
						JOINT LeftForeArm
						{
							OFFSET 28.7393 0.0000 -0.0026
							CHANNELS 3 Zrotation Xrotation Yrotation
							JOINT LeftHand
							{
								OFFSET 27.0940 -0.0000 0.0026
								CHANNELS 3 Zrotation Xrotation Yrotation
								JOINT LeftHandThumbEnd
								{
									OFFSET 12.2686 -3.2202 4.8331
									CHANNELS 3 Zrotation Xrotation Yrotation
									End Site
									{
										OFFSET 0.0 1.0 0.0
									}
								}
								JOINT LeftHandMiddleEnd
								{
									OFFSET 19.0120 -0.3129 -0.0340
									CHANNELS 3 Zrotation Xrotation Yrotation
									End Site
									{
										OFFSET 0.0 1.0 0.0
									}
								}
							}
						}
					}
				}
				JOINT RightShoulder
				{
					OFFSET -1.3801 23.1803 5.2142
					CHANNELS 3 Zrotation Xrotation Yrotation
					JOINT RightArm
					{
						OFFSET -15.0372 0.0000 -5.5456
						CHANNELS 3 Zrotation Xrotation Yrotation
						JOINT RightForeArm
						{
							OFFSET -28.7366 0.0000 -0.0026
							CHANNELS 3 Zrotation Xrotation Yrotation
							JOINT RightHand
							{
								OFFSET -27.1336 -0.0000 0.0026
								CHANNELS 3 Zrotation Xrotation Yrotation
								JOINT RightHandThumbEnd
								{
									OFFSET -12.2642 -3.2115 4.8040
									CHANNELS 3 Zrotation Xrotation Yrotation
									End Site
									{
										OFFSET 0.0 1.0 0.0
									}
								}
								JOINT RightHandMiddleEnd
								{
									OFFSET -19.0006 -0.3066 -0.0316
									CHANNELS 3 Zrotation Xrotation Yrotation
									End Site
									{
										OFFSET 0.0 1.0 0.0
									}
								}
							}
						}
					}
				}
			}
		}
	}
	JOINT LeftLeg
	{
		OFFSET 10.0432 -8.4345 2.5957
		CHANNELS 3 Zrotation Xrotation Yrotation
		JOINT LeftShin
		{
			OFFSET -0.0000 -43.2218 -0.8029
			CHANNELS 3 Zrotation Xrotation Yrotation
			JOINT LeftFoot
			{
				OFFSET 0.0000 -42.1551 -3.4815
				CHANNELS 3 Zrotation Xrotation Yrotation
				JOINT LeftToeBase
				{
					OFFSET 0.0000 -5.0595 13.2315
					CHANNELS 3 Zrotation Xrotation Yrotation
					End Site
					{
						OFFSET 0.0 1.0 0.0
					}
				}
			}
		}
	}
	JOINT RightLeg
	{
		OFFSET -10.0473 -8.2953 2.6203
		CHANNELS 3 Zrotation Xrotation Yrotation
		JOINT RightShin
		{
			OFFSET 0.0000 -43.3622 -0.8056
			CHANNELS 3 Zrotation Xrotation Yrotation
			JOINT RightFoot
			{
				OFFSET 0.0000 -42.1174 -3.4784
				CHANNELS 3 Zrotation Xrotation Yrotation
				JOINT RightToeBase
				{
					OFFSET -0.0000 -5.0796 13.2842
					CHANNELS 3 Zrotation Xrotation Yrotation
					End Site
					{
						OFFSET 0.0 1.0 0.0
					}
				}
			}
		}
	}
}
MOTION
Frames: 6
Frame Time: 0.033333
-6.2471 93.8303 0.6146 2.7673 10.6055 -0.2349 -0.0657 13.0979 -0.6390 -0.2957 1.9772 -0.4095 2.0114 29.5751 -1.9369 9.3006 21.3468 0.8255 -0.1660 -3.6584 5.0242 1.2066 -16.3545 3.3820 -0.0540 -0.0794 0.1512 0.5347 -10.1905 -3.5380 -0.6339 -10.1961 3.8579 2.1084 18.4381 -10.9237 -69.1858 -27.8514 -17.0374 -0.8489 -0.3356 -130.8003 33.4292 18.8896 22.8637 -14.8838 10.9421 15.8626 -60.1099 2.0346 2.2982 3.8538 17.6452 20.1931 69.1901 -35.9665 -19.5388 0.2323 0.6220 88.0735 -26.9123 40.9901 -36.1828 15.9932 7.6107 -16.3135 50.3597 -3.7947 -4.8535 3.1050 -33.1863 -7.6030 -0.1300 39.3246 -0.1990 -6.2736 -17.7956 -3.5895 1.6210 0.3822 -1.9178 -14.6655 -35.2155 6.4534 0.4378 37.1989 1.2777 9.1625 -13.9101 1.2121 -1.4376 0.3782 1.0684
-6.5020 94.0743 0.7310 3.0098 12.2929 -0.2641 -0.0273 13.3381 -0.6239 -0.3131 2.1055 -0.3902 2.3069 29.7700 -1.7093 9.7051 21.5098 0.9419 -0.1005 -3.6850 4.9394 1.0462 -16.3057 3.2430 -0.0433 -0.0908 0.1296 0.5379 -10.1809 -3.5610 -0.6159 -10.2088 3.8348 2.6123 18.3655 -10.9474 -69.0767 -29.0383 -17.1304 -0.6874 -0.5116 -129.7349 33.1630 19.1428 22.3697 -14.8589 10.8805 15.7807 -59.9710 2.0448 2.2832 4.0422 17.3434 20.9085 68.6115 -37.1507 -20.8678 0.2934 0.4805 88.4086 -25.4435 38.8624 -34.3039 16.0843 7.4265 -16.2880 50.3219 -3.8612 -4.7641 3.4917 -34.3839 -8.3518 -0.1642 38.1841 -0.2192 -6.5312 -17.2421 -2.8573 1.6146 0.6160 -1.9556 -14.8046 -36.8297 6.1679 0.4237 36.5039 1.2350 9.1556 -13.1905 1.5111 -1.4485 0.3769 1.0522
-6.6821 94.3083 0.7660 3.1711 14.0094 -0.4928 0.0218 13.6132 -0.5808 -0.3170 2.2817 -0.3814 2.6180 30.0261 -1.3669 9.8925 21.6239 1.1936 -0.1899 -3.7349 4.7377 0.9884 -15.9544 2.8563 -0.0445 -0.1051 0.1215 0.5279 -10.2171 -3.5720 -0.6073 -10.2626 3.8291 3.0298 18.2860 -10.8922 -69.1233 -30.2589 -17.0168 -0.5906 -0.7228 -129.0151 32.6144 18.6915 21.2520 -14.8744 10.8096 15.7897 -59.8489 2.0200 2.2949 4.1150 17.0162 21.7717 67.9018 -38.4912 -21.9460 0.1264 0.3046 88.7663 -24.2936 37.2037 -33.1773 16.0948 7.3334 -16.3044 50.2139 -3.9109 -4.7342 3.9980 -35.6022 -9.0545 -0.1855 37.1434 -0.2297 -6.7944 -16.6208 -2.1713 1.6153 0.7628 -1.9833 -14.8085 -38.5492 5.7212 0.4395 35.7528 1.2571 9.1166 -12.4479 2.0264 -1.4434 0.4539 1.0316
-6.8352 94.5294 0.7900 3.2168 15.6132 -0.9709 0.0867 13.9346 -0.5198 -0.2830 2.4905 -0.3918 2.8776 30.2939 -0.9473 9.7405 21.7434 1.4782 -0.2969 -3.7710 4.5011 1.0069 -15.5804 2.4191 -0.0373 -0.1149 0.1118 0.5231 -10.2520 -3.5810 -0.5870 -10.3106 3.8165 3.2659 18.2006 -10.8404 -69.3750 -31.3691 -16.6691 -0.5761 -0.8506 -128.6580 32.1425 18.1095 20.0354 -14.9111 10.7595 15.7842 -59.7700 2.0203 2.2842 3.9989 16.6903 22.6563 67.3581 -39.9222 -22.9365 -0.0276 0.2165 89.2604 -23.4718 36.2740 -32.7356 16.0705 7.3141 -16.3144 50.1156 -3.9283 -4.7294 4.5309 -36.7392 -9.6153 -0.1923 36.3015 -0.2423 -7.0423 -16.0852 -1.4529 1.6197 0.8478 -2.0017 -14.7806 -40.1270 5.5037 0.4478 34.9758 1.2723 9.1251 -11.7190 2.6410 -1.4358 0.4704 1.0205
-6.9563 94.6944 0.8147 3.2043 17.1692 -1.5973 0.1551 14.3130 -0.4758 -0.2420 2.7347 -0.3621 3.0724 30.6308 -0.5543 9.3222 21.8379 1.8030 -0.3529 -3.7961 4.2369 1.1172 -15.1238 2.0111 -0.0328 -0.1191 0.1062 0.5165 -10.2920 -3.5863 -0.5703 -10.3597 3.8082 3.2988 18.0915 -10.8067 -69.6303 -32.4936 -16.1702 -0.6465 -0.9034 -128.5240 31.7611 17.4099 18.7926 -14.9972 10.6851 15.7207 -59.7175 2.0273 2.2301 3.7486 16.3436 23.5407 66.8251 -41.5339 -23.7546 -0.1575 0.1239 89.8831 -22.5294 35.6640 -32.4365 16.0430 7.3227 -16.3230 50.0521 -3.9337 -4.7164 5.0802 -37.8931 -10.1693 -0.1902 35.6712 -0.2424 -7.2659 -15.6865 -0.7164 1.6216 0.9520 -2.0024 -14.7870 -41.6717 5.5222 0.4661 34.2699 1.3006 9.1583 -11.0099 3.1753 -1.4285 0.4770 1.0171
-6.9786 94.8088 0.8250 3.1363 18.6640 -2.3001 0.2192 14.7434 -0.4345 -0.1796 2.9942 -0.3553 3.2109 31.0361 -0.2031 8.7075 21.8883 2.0596 -0.4009 -3.8147 4.0186 1.3139 -14.5665 1.6578 -0.0423 -0.1221 0.1065 0.4978 -10.3258 -3.5788 -0.5702 -10.4037 3.8066 3.1263 17.9522 -10.8654 -69.7640 -33.6873 -15.5850 -0.7273 -0.8571 -128.3999 31.3362 16.5124 17.6452 -15.0627 10.6447 15.6770 -59.6755 2.0465 2.1619 3.4299 15.9989 24.4345 66.0219 -43.3846 -24.1212 -0.2561 0.1002 90.3043 -21.2308 35.1730 -31.9471 16.0474 7.3482 -16.3376 50.0280 -3.9324 -4.7223 5.6567 -39.0911 -10.7035 -0.2005 35.3224 -0.2496 -7.4472 -15.4569 -0.0258 1.6268 1.0728 -2.0041 -14.8865 -43.2044 5.8138 0.4762 33.7412 1.3153 9.2250 -10.3588 3.6746 -1.4266 0.5075 1.0251
